<?xml version="1.0" encoding="UTF-8" standalone="no"?>
<!DOCTYPE svg PUBLIC "-//W3C//DTD SVG 1.1//EN"
 "http://www.w3.org/Graphics/SVG/1.1/DTD/svg11.dtd">
<!-- Generated by graphviz version 12.2.1 (20241206.2353)
 -->
<!-- Pages: 1 -->
<svg width="1720pt" height="117pt"
 viewBox="0.00 0.00 1720.25 116.75" xmlns="http://www.w3.org/2000/svg" xmlns:xlink="http://www.w3.org/1999/xlink">
<g id="graph0" class="graph" transform="scale(1 1) rotate(0) translate(4 112.75)">
<polygon fill="white" stroke="none" points="-4,4 -4,-112.75 1716.25,-112.75 1716.25,4 -4,4"/>
<text text-anchor="middle" x="856.12" y="-85.75" font-family="Times New Roman,serif" font-size="20.00">Run 1 of 5</text>
<!-- arrival -->
<g id="node1" class="node">
<title>arrival</title>
<path fill="none" stroke="black" d="M42,-49.25C42,-49.25 12,-49.25 12,-49.25 6,-49.25 0,-43.25 0,-37.25 0,-37.25 0,-20.25 0,-20.25 0,-14.25 6,-8.25 12,-8.25 12,-8.25 42,-8.25 42,-8.25 48,-8.25 54,-14.25 54,-20.25 54,-20.25 54,-37.25 54,-37.25 54,-43.25 48,-49.25 42,-49.25"/>
<text text-anchor="middle" x="27" y="-31.95" font-family="Times New Roman,serif" font-size="14.00">arrival</text>
<text text-anchor="middle" x="27" y="-15.45" font-family="Times New Roman,serif" font-size="14.00">n=40</text>
</g>
<!-- start_queue_rec
eptionist -->
<g id="node8" class="node">
<title>start_queue_rec
eptionist</title>
<path fill="none" stroke="black" d="M282.25,-57.5C282.25,-57.5 204.75,-57.5 204.75,-57.5 198.75,-57.5 192.75,-51.5 192.75,-45.5 192.75,-45.5 192.75,-12 192.75,-12 192.75,-6 198.75,0 204.75,0 204.75,0 282.25,0 282.25,0 288.25,0 294.25,-6 294.25,-12 294.25,-12 294.25,-45.5 294.25,-45.5 294.25,-51.5 288.25,-57.5 282.25,-57.5"/>
<text text-anchor="middle" x="243.5" y="-40.2" font-family="Times New Roman,serif" font-size="14.00">start_queue_rec</text>
<text text-anchor="middle" x="243.5" y="-23.7" font-family="Times New Roman,serif" font-size="14.00">eptionist</text>
<text text-anchor="middle" x="243.5" y="-7.2" font-family="Times New Roman,serif" font-size="14.00">n=40</text>
</g>
<!-- arrival&#45;&gt;start_queue_rec
eptionist -->
<g id="edge1" class="edge">
<title>arrival&#45;&gt;start_queue_rec
eptionist</title>
<path fill="none" stroke="black" stroke-width="5" d="M54.3,-28.75C84.55,-28.75 135.35,-28.75 176.55,-28.75"/>
<polygon fill="black" stroke="black" stroke-width="5" points="176.43,-33.13 186.43,-28.75 176.43,-24.38 176.43,-33.13"/>
<text text-anchor="middle" x="123.38" y="-64.95" font-family="Times New Roman,serif" font-size="14.00">n=40</text>
<text text-anchor="middle" x="123.38" y="-48.45" font-family="Times New Roman,serif" font-size="14.00">p=1.00</text>
<text text-anchor="middle" x="123.38" y="-31.95" font-family="Times New Roman,serif" font-size="14.00">mean=0.0 minutes</text>
</g>
<!-- begin_nurse_con
sult -->
<g id="node2" class="node">
<title>begin_nurse_con
sult</title>
<path fill="none" stroke="black" d="M1259.75,-57.5C1259.75,-57.5 1175.5,-57.5 1175.5,-57.5 1169.5,-57.5 1163.5,-51.5 1163.5,-45.5 1163.5,-45.5 1163.5,-12 1163.5,-12 1163.5,-6 1169.5,0 1175.5,0 1175.5,0 1259.75,0 1259.75,0 1265.75,0 1271.75,-6 1271.75,-12 1271.75,-12 1271.75,-45.5 1271.75,-45.5 1271.75,-51.5 1265.75,-57.5 1259.75,-57.5"/>
<text text-anchor="middle" x="1217.62" y="-40.2" font-family="Times New Roman,serif" font-size="14.00">begin_nurse_con</text>
<text text-anchor="middle" x="1217.62" y="-23.7" font-family="Times New Roman,serif" font-size="14.00">sult</text>
<text text-anchor="middle" x="1217.62" y="-7.2" font-family="Times New Roman,serif" font-size="14.00">n=38</text>
</g>
<!-- complete_nurse_
consult -->
<g id="node4" class="node">
<title>complete_nurse_
consult</title>
<path fill="none" stroke="black" d="M1507.5,-57.5C1507.5,-57.5 1422.5,-57.5 1422.5,-57.5 1416.5,-57.5 1410.5,-51.5 1410.5,-45.5 1410.5,-45.5 1410.5,-12 1410.5,-12 1410.5,-6 1416.5,0 1422.5,0 1422.5,0 1507.5,0 1507.5,0 1513.5,0 1519.5,-6 1519.5,-12 1519.5,-12 1519.5,-45.5 1519.5,-45.5 1519.5,-51.5 1513.5,-57.5 1507.5,-57.5"/>
<text text-anchor="middle" x="1465" y="-40.2" font-family="Times New Roman,serif" font-size="14.00">complete_nurse_</text>
<text text-anchor="middle" x="1465" y="-23.7" font-family="Times New Roman,serif" font-size="14.00">consult</text>
<text text-anchor="middle" x="1465" y="-7.2" font-family="Times New Roman,serif" font-size="14.00">n=36</text>
</g>
<!-- begin_nurse_con
sult&#45;&gt;complete_nurse_
consult -->
<g id="edge2" class="edge">
<title>begin_nurse_con
sult&#45;&gt;complete_nurse_
consult</title>
<path fill="none" stroke="black" stroke-width="0.8" d="M1272.17,-28.75C1309.47,-28.75 1359.43,-28.75 1399.01,-28.75"/>
<polygon fill="black" stroke="black" stroke-width="0.8" points="1398.93,-32.25 1408.93,-28.75 1398.93,-25.25 1398.93,-32.25"/>
<text text-anchor="middle" x="1341.12" y="-64.95" font-family="Times New Roman,serif" font-size="14.00">n=36</text>
<text text-anchor="middle" x="1341.12" y="-48.45" font-family="Times New Roman,serif" font-size="14.00">p=1.00</text>
<text text-anchor="middle" x="1341.12" y="-31.95" font-family="Times New Roman,serif" font-size="14.00">mean=6.0 minutes</text>
</g>
<!-- begin_reception
ist_checkin -->
<g id="node3" class="node">
<title>begin_reception
ist_checkin</title>
<path fill="none" stroke="black" d="M524,-57.5C524,-57.5 445,-57.5 445,-57.5 439,-57.5 433,-51.5 433,-45.5 433,-45.5 433,-12 433,-12 433,-6 439,0 445,0 445,0 524,0 524,0 530,0 536,-6 536,-12 536,-12 536,-45.5 536,-45.5 536,-51.5 530,-57.5 524,-57.5"/>
<text text-anchor="middle" x="484.5" y="-40.2" font-family="Times New Roman,serif" font-size="14.00">begin_reception</text>
<text text-anchor="middle" x="484.5" y="-23.7" font-family="Times New Roman,serif" font-size="14.00">ist_checkin</text>
<text text-anchor="middle" x="484.5" y="-7.2" font-family="Times New Roman,serif" font-size="14.00">n=40</text>
</g>
<!-- end_receptionis
t_checkin -->
<g id="node6" class="node">
<title>end_receptionis
t_checkin</title>
<path fill="none" stroke="black" d="M764.25,-57.5C764.25,-57.5 686.75,-57.5 686.75,-57.5 680.75,-57.5 674.75,-51.5 674.75,-45.5 674.75,-45.5 674.75,-12 674.75,-12 674.75,-6 680.75,0 686.75,0 686.75,0 764.25,0 764.25,0 770.25,0 776.25,-6 776.25,-12 776.25,-12 776.25,-45.5 776.25,-45.5 776.25,-51.5 770.25,-57.5 764.25,-57.5"/>
<text text-anchor="middle" x="725.5" y="-40.2" font-family="Times New Roman,serif" font-size="14.00">end_receptionis</text>
<text text-anchor="middle" x="725.5" y="-23.7" font-family="Times New Roman,serif" font-size="14.00">t_checkin</text>
<text text-anchor="middle" x="725.5" y="-7.2" font-family="Times New Roman,serif" font-size="14.00">n=40</text>
</g>
<!-- begin_reception
ist_checkin&#45;&gt;end_receptionis
t_checkin -->
<g id="edge3" class="edge">
<title>begin_reception
ist_checkin&#45;&gt;end_receptionis
t_checkin</title>
<path fill="none" stroke="black" stroke-width="5" d="M536.48,-28.75C572.03,-28.75 619.79,-28.75 658.28,-28.75"/>
<polygon fill="black" stroke="black" stroke-width="5" points="658.18,-33.13 668.18,-28.75 658.18,-24.38 658.18,-33.13"/>
<text text-anchor="middle" x="605.38" y="-64.95" font-family="Times New Roman,serif" font-size="14.00">n=40</text>
<text text-anchor="middle" x="605.38" y="-48.45" font-family="Times New Roman,serif" font-size="14.00">p=1.00</text>
<text text-anchor="middle" x="605.38" y="-31.95" font-family="Times New Roman,serif" font-size="14.00">mean=3.0 minutes</text>
</g>
<!-- depart -->
<g id="node5" class="node">
<title>depart</title>
<path fill="none" stroke="black" d="M1700.25,-49.25C1700.25,-49.25 1670.25,-49.25 1670.25,-49.25 1664.25,-49.25 1658.25,-43.25 1658.25,-37.25 1658.25,-37.25 1658.25,-20.25 1658.25,-20.25 1658.25,-14.25 1664.25,-8.25 1670.25,-8.25 1670.25,-8.25 1700.25,-8.25 1700.25,-8.25 1706.25,-8.25 1712.25,-14.25 1712.25,-20.25 1712.25,-20.25 1712.25,-37.25 1712.25,-37.25 1712.25,-43.25 1706.25,-49.25 1700.25,-49.25"/>
<text text-anchor="middle" x="1685.25" y="-31.95" font-family="Times New Roman,serif" font-size="14.00">depart</text>
<text text-anchor="middle" x="1685.25" y="-15.45" font-family="Times New Roman,serif" font-size="14.00">n=36</text>
</g>
<!-- complete_nurse_
consult&#45;&gt;depart -->
<g id="edge4" class="edge">
<title>complete_nurse_
consult&#45;&gt;depart</title>
<path fill="none" stroke="black" stroke-width="0.8" d="M1519.95,-28.75C1559.42,-28.75 1611.95,-28.75 1646.87,-28.75"/>
<polygon fill="black" stroke="black" stroke-width="0.8" points="1646.79,-32.25 1656.79,-28.75 1646.79,-25.25 1646.79,-32.25"/>
<text text-anchor="middle" x="1588.88" y="-64.95" font-family="Times New Roman,serif" font-size="14.00">n=36</text>
<text text-anchor="middle" x="1588.88" y="-48.45" font-family="Times New Roman,serif" font-size="14.00">p=1.00</text>
<text text-anchor="middle" x="1588.88" y="-31.95" font-family="Times New Roman,serif" font-size="14.00">mean=0.0 minutes</text>
</g>
<!-- start_queue_nur
se -->
<g id="node7" class="node">
<title>start_queue_nur
se</title>
<path fill="none" stroke="black" d="M1006,-57.5C1006,-57.5 927,-57.5 927,-57.5 921,-57.5 915,-51.5 915,-45.5 915,-45.5 915,-12 915,-12 915,-6 921,0 927,0 927,0 1006,0 1006,0 1012,0 1018,-6 1018,-12 1018,-12 1018,-45.5 1018,-45.5 1018,-51.5 1012,-57.5 1006,-57.5"/>
<text text-anchor="middle" x="966.5" y="-40.2" font-family="Times New Roman,serif" font-size="14.00">start_queue_nur</text>
<text text-anchor="middle" x="966.5" y="-23.7" font-family="Times New Roman,serif" font-size="14.00">se</text>
<text text-anchor="middle" x="966.5" y="-7.2" font-family="Times New Roman,serif" font-size="14.00">n=40</text>
</g>
<!-- end_receptionis
t_checkin&#45;&gt;start_queue_nur
se -->
<g id="edge5" class="edge">
<title>end_receptionis
t_checkin&#45;&gt;start_queue_nur
se</title>
<path fill="none" stroke="black" stroke-width="5" d="M776.6,-28.75C811.97,-28.75 859.76,-28.75 898.42,-28.75"/>
<polygon fill="black" stroke="black" stroke-width="5" points="898.4,-33.13 908.4,-28.75 898.4,-24.38 898.4,-33.13"/>
<text text-anchor="middle" x="845.62" y="-64.95" font-family="Times New Roman,serif" font-size="14.00">n=40</text>
<text text-anchor="middle" x="845.62" y="-48.45" font-family="Times New Roman,serif" font-size="14.00">p=1.00</text>
<text text-anchor="middle" x="845.62" y="-31.95" font-family="Times New Roman,serif" font-size="14.00">mean=0.0 minutes</text>
</g>
<!-- start_queue_nur
se&#45;&gt;begin_nurse_con
sult -->
<g id="edge6" class="edge">
<title>start_queue_nur
se&#45;&gt;begin_nurse_con
sult</title>
<path fill="none" stroke="black" stroke-width="2.9" d="M1018.21,-28.75C1055.93,-28.75 1107.78,-28.75 1149.02,-28.75"/>
<polygon fill="black" stroke="black" stroke-width="2.9" points="1149.01,-32.25 1159.01,-28.75 1149.01,-25.25 1149.01,-32.25"/>
<text text-anchor="middle" x="1090.75" y="-64.95" font-family="Times New Roman,serif" font-size="14.00">n=38</text>
<text text-anchor="middle" x="1090.75" y="-48.45" font-family="Times New Roman,serif" font-size="14.00">p=1.00</text>
<text text-anchor="middle" x="1090.75" y="-31.95" font-family="Times New Roman,serif" font-size="14.00">mean=17.2 minutes</text>
</g>
<!-- start_queue_rec
eptionist&#45;&gt;begin_reception
ist_checkin -->
<g id="edge7" class="edge">
<title>start_queue_rec
eptionist&#45;&gt;begin_reception
ist_checkin</title>
<path fill="none" stroke="black" stroke-width="5" d="M294.6,-28.75C329.97,-28.75 377.76,-28.75 416.42,-28.75"/>
<polygon fill="black" stroke="black" stroke-width="5" points="416.4,-33.13 426.4,-28.75 416.4,-24.38 416.4,-33.13"/>
<text text-anchor="middle" x="363.62" y="-64.95" font-family="Times New Roman,serif" font-size="14.00">n=40</text>
<text text-anchor="middle" x="363.62" y="-48.45" font-family="Times New Roman,serif" font-size="14.00">p=1.00</text>
<text text-anchor="middle" x="363.62" y="-31.95" font-family="Times New Roman,serif" font-size="14.00">mean=1.1 minutes</text>
</g>
</g>
</svg>
